<svg width="51" height="51" viewBox="0 0 51 51" fill="none" xmlns="http://www.w3.org/2000/svg">
<path d="M36.1387 0C36.1387 8.70004 33.0661 16.6757 27.9512 22.9092C34.1821 17.8107 42.1465 14.753 50.8242 14.7529V33.4854C41.2333 33.4855 33.4406 41.2568 33.4404 50.8691L33.4189 50.8906H14.6865C14.6866 42.1924 17.7561 34.2172 22.8691 27.9844C16.6387 33.081 8.67607 36.1387 0 36.1387V17.4053C9.59117 17.4053 17.3837 9.63406 17.3838 0.0214844L17.4053 0H36.1387Z" fill="url(#paint0_linear_655_1471)"/>
<path d="M37.4005 25.4532C37.4005 25.5603 37.4005 25.6673 37.4005 25.7744C37.2506 25.7744 37.0793 25.7744 36.9295 25.7744C30.7423 25.7744 25.754 30.784 25.754 36.9498C25.754 43.1156 25.754 37.1425 25.754 37.2281H25.6256C25.4543 37.2281 25.3044 37.2281 25.1332 37.2281C25.1332 37.1425 25.1332 37.0569 25.1332 36.9498C25.1332 30.7626 20.1235 25.7744 13.9577 25.7744H13.8721C13.8721 25.6673 13.8721 25.5603 13.8721 25.4746C13.8721 25.389 13.8721 25.2605 13.8721 25.1749H13.9577C20.1449 25.1749 25.1332 20.1652 25.1332 13.9995C25.1332 7.83368 25.1332 13.8282 25.1332 13.7211C25.3044 13.7211 25.4543 13.7211 25.6256 13.7211H25.754C25.754 13.8068 25.754 13.9138 25.754 13.9995C25.754 20.1866 30.7637 25.1749 36.9295 25.1749C43.0953 25.1749 37.2506 25.1749 37.4005 25.1749C37.4005 25.282 37.4005 25.389 37.4005 25.496V25.4532Z" fill="#15122B"/>
<defs>
<linearGradient id="paint0_linear_655_1471" x1="25.4121" y1="0" x2="25.4121" y2="50.8906" gradientUnits="userSpaceOnUse">
<stop stop-color="#512697"/>
<stop offset="1" stop-color="#87327A"/>
</linearGradient>
</defs>
</svg>
