<svg width="13.2" height="13.22" viewBox="0 0 26.4 26.44" fill="none" xmlns="http://www.w3.org/2000/svg">
<path d="M18.7383 0.033226C18.7382 4.54086 17.1476 8.67329 14.499 11.9043C17.729 9.26368 21.8568 7.68072 26.3535 7.68069V17.3936C21.3803 17.3936 17.3398 21.4239 17.3398 26.4082L17.3281 26.419H7.61523C7.61523 21.9103 9.20589 17.7763 11.8555 14.5449C8.62523 17.1865 4.49764 18.7715 0 18.7715V9.05764C4.97323 9.05764 9.01367 5.0283 9.01367 0.0439682L9.02539 0.033226H18.7383Z" fill="url(#paint0_linear_781_11807)"/>
<path d="M19.3933 13.2303C19.3933 13.2858 19.3933 13.3413 19.3933 13.3968C19.3156 13.3968 19.2268 13.3968 19.1491 13.3968C15.9409 13.3968 13.3544 15.9944 13.3544 19.1915C13.3544 22.3885 13.3544 19.2914 13.3544 19.3358H13.2878C13.199 19.3358 13.1213 19.3358 13.0325 19.3358C13.0325 19.2914 13.0325 19.247 13.0325 19.1915C13.0325 15.9833 10.4348 13.3968 7.23776 13.3968H7.19336C7.19336 13.3413 7.19336 13.2858 7.19336 13.2414C7.19336 13.197 7.19336 13.1304 7.19336 13.086H7.23776C10.4459 13.086 13.0325 10.4883 13.0325 7.29125C13.0325 4.09418 13.0325 7.20244 13.0325 7.14694C13.1213 7.14694 13.199 7.14694 13.2878 7.14694H13.3544C13.3544 7.19134 13.3544 7.24685 13.3544 7.29125C13.3544 10.4994 15.952 13.086 19.1491 13.086C22.3462 13.086 19.3156 13.086 19.3933 13.086C19.3933 13.1415 19.3933 13.197 19.3933 13.2525V13.2303Z" fill="white"/>
<defs>
<linearGradient id="paint0_linear_781_11807" x1="6.80023" y1="5.705" x2="23.3667" y2="22.4685" gradientUnits="userSpaceOnUse">
<stop stop-color="#8439FF"/>
<stop offset="1" stop-color="#F155DA"/>
</linearGradient>
</defs>
</svg>