<svg width="100" height="46" viewBox="0 0 100 46" fill="none" xmlns="http://www.w3.org/2000/svg">
<path d="M23.8216 14.8597C21.066 9.56845 19.0894 5.00311 16.2124 0.135639C16.1053 -0.0456543 15.8093 -0.0495758 15.7447 0.150932C14.1696 5.04194 10.8033 9.14037 16.0573 14.7146C21.0822 20.0457 7.28587 6.53938 0.462103 3.33213C0.295196 3.25365 0.10022 3.36412 0.0825133 3.54773C-0.356234 8.11016 0.906988 13.468 5.02222 15.5511C5.18087 15.6313 6.21159 15.3386 6.096 15.4737C2.47022 19.7087 12.4153 25.3672 18.5421 22.7075C18.6682 22.6528 18.7959 22.8111 18.8081 22.948C19.0678 25.8712 14.1603 33.4477 12.5281 35.3468C10.5931 37.5982 3.73133 50.4007 13.771 38.2039C13.932 38.0082 14.2494 38.1256 14.2444 38.3789C14.2287 39.1735 14.2717 40.2553 14.635 40.1008C14.6901 40.0773 14.7311 40.0302 14.7568 39.9762C15.4154 38.5862 17.1982 33.4501 20.0123 32.7832C33.428 29.6037 26.6038 18.4369 34.4361 17.041C36.1432 16.7368 42.9664 16.4207 43.2226 16.4164C43.8487 16.4058 34.6416 15.7325 32.7799 14.7988C32.7446 14.7811 32.7149 14.7545 32.6911 14.723C31.0548 12.5511 26.7722 11.1663 24.2784 14.8861C24.1662 15.0534 23.9147 15.0384 23.8216 14.8597Z" fill="white"/>
<path d="M32.9726 39.1172C31.4855 39.1172 30.3564 38.7316 29.5302 38.1533L29.2549 35.9502C30.1637 36.7488 31.5406 37.3822 33.0001 37.3822C34.2945 37.3822 35.2583 36.6938 35.2583 35.6473C35.2583 34.6283 34.4873 34.0224 33.1929 33.5543C30.8521 32.7281 29.5302 31.6542 29.5302 29.6989C29.5302 27.6885 31.1826 26.3115 33.4683 26.3115C34.8177 26.3115 36.0845 26.8073 36.5802 27.1102L36.1396 28.8451C35.5888 28.432 34.68 28.0189 33.4407 28.0189C32.2842 28.0189 31.513 28.6799 31.513 29.6163C31.513 30.6076 32.2015 31.0483 33.4959 31.5164C35.8917 32.3702 37.2962 33.4992 37.2962 35.5647C37.2962 37.6025 35.7265 39.1172 32.9726 39.1172Z" fill="white"/>
<path d="M46.576 38.9512L41.0407 32.9752H41.0132V38.9512H38.8926V19.3435H41.0132V32.4244H41.0407L46.576 26.476H49.082L43.4365 32.6172L49.3299 38.9512H46.576Z" fill="white"/>
<path d="M56.5171 37.7955C54.6721 42.2844 52.6892 44.3223 50.1832 45.4238L48.8062 44.0468C51.1471 43.0554 52.827 41.4858 54.2865 38.0433L49.5223 26.477H51.7254L54.2039 32.5356C54.5618 33.4169 55.0025 34.5735 55.333 35.6199H55.388C55.7736 34.6285 56.2969 33.3893 56.6273 32.5631L59.1058 26.477H61.1437L56.5171 37.7955Z" fill="white"/>
<path d="M70.5066 29.4505C70.0109 28.8997 68.8818 28.1011 67.1744 28.1011C64.7234 28.1011 62.7682 30.0014 62.7682 32.7552C62.7682 35.5367 64.7234 37.4093 67.1744 37.4093C68.7992 37.4093 69.9558 36.5832 70.5066 35.7846V29.4505ZM70.6168 38.9515V37.5746H70.5892C70.0109 38.4006 68.7441 39.2544 66.7338 39.2544C63.7871 39.2544 60.6201 36.9136 60.6201 32.7277C60.6201 28.8997 63.3465 26.1735 66.9817 26.1735C68.4687 26.1735 69.9834 26.7793 70.5066 27.3576V19.3438H72.6271V38.9515H70.6168Z" fill="white"/>
<path d="M84.1103 29.4505C83.6146 28.8997 82.4855 28.1011 80.7781 28.1011C78.3271 28.1011 76.3719 30.0014 76.3719 32.7552C76.3719 35.5367 78.3271 37.4093 80.7781 37.4093C82.4029 37.4093 83.5595 36.5832 84.1103 35.7846V29.4505ZM84.2204 38.9515V37.5746H84.1929C83.6146 38.4006 82.3477 39.2544 80.3374 39.2544C77.3907 39.2544 74.2237 36.9136 74.2237 32.7277C74.2237 28.8997 76.9502 26.1735 80.5853 26.1735C82.0724 26.1735 83.587 26.7793 84.1103 27.3576V19.3438H86.2308V38.9515H84.2204Z" fill="white"/>
<path d="M96.1177 33.0305L93.4465 33.2784C91.7941 33.4436 90.9679 34.38 90.9679 35.5091C90.9679 36.5831 91.8217 37.4367 93.116 37.4367C94.6582 37.4367 96.1177 36.2801 96.1177 34.435V33.0305ZM98.3484 39.2544C97.4947 39.0615 96.5308 38.318 96.3656 37.1614C95.8424 38.621 94.4379 39.2544 92.9232 39.2544C90.4998 39.2544 88.9301 37.5194 88.9301 35.4815C88.9301 33.0581 90.8854 31.7638 93.0058 31.571L96.1177 31.268V30.2766C96.1177 28.9548 95.2365 28.0185 93.4189 28.0185C92.1797 28.0185 90.9129 28.404 90.0592 28.9823L89.6185 27.2199C90.665 26.5313 92.0419 26.1734 93.5291 26.1734C96.2555 26.1734 98.2382 27.7156 98.2382 30.5245V35.8946C98.2382 37.0788 98.8991 37.7398 99.6978 37.8774L98.3484 39.2544Z" fill="white"/>
<path fill-rule="evenodd" clip-rule="evenodd" d="M51.1101 15.792L47.2983 17.75L48.4234 13.3937L51.1101 15.792Z" fill="white"/>
<path fill-rule="evenodd" clip-rule="evenodd" d="M43.7 19.2988L44.9775 16.3944L46.3697 18.8956L43.7 19.2988Z" fill="white"/>
<path fill-rule="evenodd" clip-rule="evenodd" d="M44.864 11.8046L42.1028 14.029L46.2883 15.4863L44.864 11.8046Z" fill="white"/>
</svg>
