<svg width="214" height="52" viewBox="0 0 214 52" fill="none" xmlns="http://www.w3.org/2000/svg">
<path d="M81.122 25.383C79.9481 24.9075 77.7637 24.1199 76.248 23.6444C71.6266 22.203 70.1109 21.0737 70.1109 18.6812C70.1109 16.2888 71.3294 15.5458 75.5942 15.5458C79.8589 15.5458 80.6019 16.4968 81.2558 18.2503C81.5232 18.9933 81.5975 19.9889 81.5975 20.3901H88.8194C88.8194 19.4837 88.5519 17.9977 88.2547 16.9575C86.9917 12.6481 83.3807 9.69104 75.6685 9.69104C67.9562 9.69104 62.785 13.3911 62.785 18.9636C62.785 24.536 66.0988 27.1513 71.7158 28.8899C73.2761 29.4546 75.4604 30.153 76.7235 30.5394C80.6019 31.7133 82.0433 32.9318 82.0433 35.5025C82.0433 38.0733 80.5574 39.2472 76.4263 39.2472C72.2953 39.2472 71.0322 38.5488 70.2892 36.6765C70.0663 36.1564 69.9029 34.6704 69.9029 34.1949H62.7256C62.7256 34.715 62.7702 36.721 63.0674 37.9395C64.1521 42.2935 67.5996 45.0425 76.4709 45.0425C85.3422 45.0425 89.3098 41.2087 89.3098 35.2053C89.3098 29.202 86.3081 26.973 81.122 25.4127V25.383Z" fill="white"/>
<path d="M98.1654 9.98907V29.396L106.086 20.599H113.575L106.13 28.9948L114.526 45.0434H107.26L101.524 33.8391L98.1654 37.45V45.0434H91.5527V13.8378C94.0343 13.0651 96.2782 11.7425 98.1356 10.0337" fill="white"/>
<path d="M120.931 51.9525H127.901L139.922 20.5983H133.087C133.087 20.5983 127.514 36.9738 127.47 37.3156C127.425 36.9738 121.719 20.5983 121.719 20.5983H114.705L123.844 44.4185L120.931 51.9525Z" fill="white"/>
<path d="M188.825 41.3716V13.7621C186.328 12.9894 184.084 11.6669 182.212 9.94312V23.1386C180.815 21.1771 178.036 20.345 175.035 20.345C172.033 20.345 168.898 21.7864 167.412 24.0451C165.896 26.274 165.108 29.0083 165.108 32.8867C165.108 36.7651 165.941 39.3804 167.412 41.4162C169.017 43.6749 171.513 44.8934 175.079 44.8934C178.646 44.8934 181.528 43.3331 182.39 41.5797C182.39 41.5797 182.063 43.348 183.014 45.0569H183.267C183.267 45.042 189.033 45.042 189.033 45.042C189.033 45.042 188.84 42.6644 188.84 41.3568L188.825 41.3716ZM181.202 37.6269C180.325 38.8009 179.017 39.5439 177.115 39.5439C175.213 39.5439 173.281 38.5928 172.538 37.2406C171.929 35.9329 171.706 34.3726 171.706 32.7529C171.706 31.1332 172.048 29.2757 172.791 28.0126C173.623 26.6604 175.094 26.0512 177.189 26.0512C179.285 26.0512 180.236 26.5712 181.112 27.656C181.989 28.7408 182.375 30.4497 182.375 32.7529C182.375 35.0562 181.989 36.5868 181.202 37.6269Z" fill="white"/>
<path d="M156.848 45.1466H157.071C157.071 45.1317 162.866 45.1317 162.866 45.1317C162.866 45.1317 162.688 42.7542 162.688 41.4465V13.837C160.191 13.0643 157.948 11.7417 156.075 10.018V23.2135C154.678 21.252 151.9 20.4199 148.898 20.4199C145.896 20.4199 142.761 21.8613 141.275 24.12C139.759 26.3489 138.972 29.0831 138.972 32.9615C138.972 36.84 139.804 39.4553 141.275 41.4911C142.88 43.7498 145.361 44.9683 148.943 44.9683C152.524 44.9683 155.392 43.408 156.254 41.6545C156.254 41.6545 155.912 43.3783 156.863 45.1317L156.848 45.1466ZM155.065 37.7167C154.188 38.8906 152.88 39.6336 150.978 39.6336C149.076 39.6336 147.145 38.6826 146.402 37.3303C145.792 36.0227 145.569 34.4624 145.569 32.8427C145.569 31.223 145.911 29.3655 146.654 28.1024C147.486 26.7502 148.957 26.1409 151.053 26.1409C153.148 26.1409 154.099 26.661 154.976 27.7458C155.852 28.8305 156.239 30.5394 156.239 32.8427C156.239 35.1459 155.852 36.6765 155.065 37.7167Z" fill="white"/>
<path d="M213.596 39.6344C213.596 37.8512 213.596 34.8049 213.641 33.1852C213.685 31.1346 213.596 27.8357 213.418 26.3497C212.942 22.4267 209.807 20.0789 203.224 20.0789C196.641 20.0789 195.17 21.3865 193.387 24.3436C192.688 25.5621 192.257 27.5236 192.302 28.8759H198.573C198.573 28.0437 198.84 27.271 199.405 26.4834C200.059 25.577 201.322 25.3095 203.283 25.3095C205.245 25.3095 206.984 26.1862 207.206 27.5682C207.296 28.3112 207.251 29.1731 207.251 29.7377C205.29 29.5594 203.551 29.5148 201.857 29.604C194.59 30.0349 191.5 33.0366 191.232 36.6624C191.143 37.5391 191.188 38.401 191.232 39.144C191.5 42.7995 194.709 44.761 199.242 44.761C203.774 44.761 205.602 43.9437 207.177 42.5172C207.221 43.4385 207.444 44.122 207.608 44.5381C207.682 44.8502 207.771 45.0433 207.875 45.0433H213.834C213.522 44.5678 213.611 41.5364 213.611 39.6195L213.596 39.6344ZM205.334 38.8914C204.413 39.5898 202.853 39.9316 201.545 39.9316C200.237 39.9316 198.721 39.6344 198.157 38.8914C197.726 38.3267 197.726 37.7175 197.726 37.0636C197.726 36.0234 198.335 35.1467 199.331 34.6266C200.772 33.8836 202.644 33.8836 203.952 33.839C205.26 33.7945 206.389 33.9282 207.429 34.0619C207.429 34.4186 207.385 35.325 207.206 35.9789C206.939 37.4203 206.166 38.2821 205.334 38.8914Z" fill="white"/>
<path d="M36.1387 0C36.1387 8.70004 33.0661 16.6757 27.9512 22.9092C34.1821 17.8107 42.1465 14.753 50.8242 14.7529V33.4854C41.2333 33.4855 33.4406 41.2568 33.4404 50.8691L33.4189 50.8906H14.6865C14.6866 42.1924 17.7561 34.2172 22.8691 27.9844C16.6387 33.081 8.67607 36.1387 0 36.1387V17.4053C9.59117 17.4053 17.3837 9.63406 17.3838 0.0214844L17.4053 0H36.1387Z" fill="url(#paint0_linear_655_1463)"/>
<path d="M37.4005 25.4532C37.4005 25.5603 37.4005 25.6673 37.4005 25.7744C37.2506 25.7744 37.0793 25.7744 36.9295 25.7744C30.7423 25.7744 25.754 30.784 25.754 36.9498C25.754 43.1156 25.754 37.1425 25.754 37.2281H25.6256C25.4543 37.2281 25.3044 37.2281 25.1332 37.2281C25.1332 37.1425 25.1332 37.0569 25.1332 36.9498C25.1332 30.7626 20.1235 25.7744 13.9577 25.7744H13.8721C13.8721 25.6673 13.8721 25.5603 13.8721 25.4746C13.8721 25.389 13.8721 25.2605 13.8721 25.1749H13.9577C20.1449 25.1749 25.1332 20.1652 25.1332 13.9995C25.1332 7.83368 25.1332 13.8282 25.1332 13.7211C25.3044 13.7211 25.4543 13.7211 25.6256 13.7211H25.754C25.754 13.8068 25.754 13.9138 25.754 13.9995C25.754 20.1866 30.7637 25.1749 36.9295 25.1749C43.0953 25.1749 37.2506 25.1749 37.4005 25.1749C37.4005 25.282 37.4005 25.389 37.4005 25.496V25.4532Z" fill="#15122B"/>
<defs>
<linearGradient id="paint0_linear_655_1463" x1="25.4121" y1="0" x2="25.4121" y2="50.8906" gradientUnits="userSpaceOnUse">
<stop stop-color="#512697"/>
<stop offset="1" stop-color="#87327A"/>
</linearGradient>
</defs>
</svg>
